HIERARCHY
ROOT Hips
{
	OFFSET 0.000000 96.227043 0.000000
	CHANNELS 6 Xposition Yposition Zposition Xrotation Yrotation Zrotation
	JOINT Spine
	{
		OFFSET 18.844400 -5.529312 -4.507404
		CHANNELS 3 Xrotation Yrotation Zrotation
		JOINT Spine1
		{
			OFFSET -0.093451 -32.082302 2.793235
			CHANNELS 3 Xrotation Yrotation Zrotation
			JOINT Spine2
			{
				OFFSET 0.093456 -31.984573 -5.636157
				CHANNELS 3 Xrotation Yrotation Zrotation
				JOINT Neck
				{
					OFFSET 1.077541 -26.551878 14.354875
					CHANNELS 3 Xrotation Yrotation Zrotation
					End Site
					{
						OFFSET 0 0 0
					}
				}
			}
		}
	}
	JOINT Head
	{
		OFFSET -18.844400 -5.529312 -4.881217
		CHANNELS 3 Xrotation Yrotation Zrotation
		JOINT HeadTop_End
		{
			OFFSET 0.122213 -32.043598 3.234913
			CHANNELS 3 Xrotation Yrotation Zrotation
			JOINT HeadTop_End1
			{
				OFFSET -0.122217 -31.792419 -5.571171
				CHANNELS 3 Xrotation Yrotation Zrotation
				JOINT Hair_Back
				{
					OFFSET -0.656431 -26.630018 14.273270
					CHANNELS 3 Xrotation Yrotation Zrotation
					End Site
					{
						OFFSET 0 0 0
					}
				}
			}
		}
	}
	JOINT LeftShoulder
	{
		OFFSET 0.000000 10.533501 -0.523275
		CHANNELS 3 Xrotation Yrotation Zrotation
		JOINT LeftArm
		{
			OFFSET 0.000000 11.299545 -1.325292
			CHANNELS 3 Xrotation Yrotation Zrotation
			JOINT LeftForeArm
			{
				OFFSET 0.000000 13.785172 -2.776498
				CHANNELS 3 Xrotation Yrotation Zrotation
				JOINT LeftHand
				{
					OFFSET 0.000000 10.127335 -2.861757
					CHANNELS 3 Xrotation Yrotation Zrotation
					JOINT LeftHandThumb1
					{
						OFFSET 0.000000 13.647385 -1.413862
						CHANNELS 3 Xrotation Yrotation Zrotation
						End Site
						{
							OFFSET 0 0 0
						}
					}
				}
				JOINT LeftHandThumb2
				{
					OFFSET 15.012800 10.971771 -0.360322
					CHANNELS 3 Xrotation Yrotation Zrotation
					JOINT LeftHandThumb3
					{
						OFFSET 25.777773 -2.567703 -13.327240
						CHANNELS 3 Xrotation Yrotation Zrotation
						JOINT LeftHandThumb4
						{
							OFFSET 29.787109 0.000000 -0.000004
							CHANNELS 3 Xrotation Yrotation Zrotation
							JOINT LeftHandIndex1
							{
								OFFSET 27.907402 0.000000 0.000000
								CHANNELS 3 Xrotation Yrotation Zrotation
								End Site
								{
									OFFSET 0 0 0
								}
							}
						}
					}
				}
				JOINT LeftHandIndex2
				{
					OFFSET -15.263000 11.005325 -0.581376
					CHANNELS 3 Xrotation Yrotation Zrotation
					JOINT LeftHandIndex3
					{
						OFFSET -25.898201 -2.575592 -13.247862
						CHANNELS 3 Xrotation Yrotation Zrotation
						JOINT LeftHandIndex4
						{
							OFFSET -29.683594 0.000000 0.000004
							CHANNELS 3 Xrotation Yrotation Zrotation
							JOINT LeftHandMiddle1
							{
								OFFSET -27.552399 0.000000 0.000002
								CHANNELS 3 Xrotation Yrotation Zrotation
								End Site
								{
									OFFSET 0 0 0
								}
							}
						}
					}
				}
			}
		}
	}
}
MOTION
Frames: 9
Frame Time: 0.03333333
-4.618063 41.407967 -24.130520 19.144515 12.788069 14.861047 -130.572180 3.099520 12.689042 108.594974 -3.620596 -2.307148 4.089478 0.747353 -6.800280 0.000000 0.000000 0.000000 -51.226719 9.116730 -28.892831 131.106492 4.354173 -4.454042 -5.767436 -1.859862 13.214196 0.000000 0.000000 0.000000 32.111759 3.698464 3.012420 5.841613 0.229100 1.879377 5.839718 0.102835 1.930731 3.384638 -2.699381 3.820734 0.000000 0.000000 0.000000 0.852510 -9.712398 -5.046223 1.174194 -1.354366 -37.517020 0.000015 -76.264219 0.000024 0.000000 0.000000 0.000000 2.719890 7.774652 12.411417 -42.938445 63.182692 50.184904 0.000005 70.819677 -0.000022 0.000000 0.000000 0.000000 
-4.646852 41.405579 -24.163517 18.929115 12.404074 14.890784 -130.362001 2.640329 12.690605 108.802072 -3.503089 -2.336333 3.994398 0.737126 -7.046492 0.000000 0.000000 0.000000 -51.646612 8.810627 -28.432650 131.244735 3.784749 -4.933671 -5.518560 -1.832919 13.207177 0.000000 0.000000 0.000000 32.147440 3.836202 2.884249 5.837933 0.278781 1.861883 5.836180 0.150900 1.910038 3.428137 -2.828322 3.907303 0.000000 0.000000 0.000000 0.889482 -10.113827 -4.697633 1.024854 -1.398017 -37.395224 0.000022 -76.644906 0.000030 0.000000 0.000000 0.000000 2.345927 9.074693 11.978694 -42.203616 68.634536 50.094940 0.000039 71.631978 -0.000056 0.000000 0.000000 0.000000 
-4.675127 41.401520 -24.200256 18.708469 12.020861 14.918491 -130.151058 2.183328 12.692874 109.005810 -3.387532 -2.365689 3.909280 0.726650 -7.290766 0.000000 0.000000 0.000000 -52.057462 8.505284 -27.972744 131.381557 3.217990 -5.407556 -5.265075 -1.805494 13.202370 0.000000 0.000000 0.000000 32.199721 3.967708 2.758939 5.836029 0.326156 1.845054 5.835054 0.196634 1.890154 3.465014 -2.964227 3.995326 0.000000 0.000000 0.000000 0.930100 -10.497633 -4.360336 0.881171 -1.421967 -37.262179 0.000007 -77.031242 -0.000009 0.000000 0.000000 0.000000 1.970561 10.450756 11.506903 -41.327596 73.770592 49.561253 0.000044 72.363983 -0.000070 0.000000 0.000000 0.000000 
-4.702246 41.394394 -24.240707 18.489645 11.641417 14.944174 -129.947559 1.732288 12.696534 109.205197 -3.273366 -2.395096 3.835418 0.715628 -7.530167 0.000000 0.000000 0.000000 -52.462225 8.208238 -27.517065 131.519828 2.660344 -5.871362 -5.013485 -1.778072 13.200386 0.000000 0.000000 0.000000 32.265670 4.080983 2.639728 5.835332 0.367817 1.828983 5.835888 0.236732 1.871544 3.494637 -3.101131 4.077669 0.000000 0.000000 0.000000 0.972038 -10.854325 -4.046885 0.743016 -1.411667 -37.122819 -0.000025 -77.419525 -0.000020 0.000000 0.000000 0.000000 1.608896 11.837950 11.036617 -39.988678 78.422989 48.341934 0.000049 73.101814 -0.000070 0.000000 0.000000 0.000000 
-4.727722 41.382500 -24.284901 18.279567 11.268674 14.968088 -129.760357 1.289425 12.703157 109.399919 -3.161637 -2.424668 3.774492 0.704099 -7.764059 0.000000 0.000000 0.000000 -52.864903 7.926718 -27.069203 131.662060 2.118626 -6.320953 -4.765931 -1.750949 13.201292 0.000000 0.000000 0.000000 32.341977 4.164025 2.529780 5.836052 0.400354 1.813775 5.838183 0.267780 1.854315 3.515797 -3.233061 4.147212 0.000000 0.000000 0.000000 1.012489 -11.174367 -3.769882 0.610279 -1.352487 -36.981916 -0.000014 -77.806073 -0.000011 0.000000 0.000000 0.000000 1.270866 13.169735 10.606775 -37.453192 82.429906 45.795595 0.000064 73.931607 -0.000071 0.000000 0.000000 0.000000 
-4.751211 41.363815 -24.332996 18.085231 10.905597 14.990595 -129.598700 0.857152 12.714173 109.589333 -3.052967 -2.454434 3.728806 0.691921 -7.991007 0.000000 0.000000 0.000000 -53.270879 7.667988 -26.631932 131.810944 1.598604 -6.752276 -4.521764 -1.724258 13.205342 0.000000 0.000000 0.000000 32.425527 4.204738 2.432262 5.838258 0.420306 1.799532 5.841544 0.286477 1.838921 3.527965 -3.354090 4.196802 0.000000 0.000000 0.000000 1.048338 -11.448260 -3.541996 0.482924 -1.229745 -36.844137 -0.000008 -78.187320 -0.000003 0.000000 0.000000 0.000000 0.961741 14.378148 10.254890 -31.702965 85.625239 40.004175 0.000042 74.939517 -0.000061 0.000000 0.000000 0.000000 
-4.772247 41.336708 -24.384975 17.913547 10.555160 15.012144 -129.471386 0.438281 12.730780 109.772854 -2.947805 -2.484370 3.700034 0.678952 -8.209184 0.000000 0.000000 0.000000 -53.685020 7.439614 -26.208319 131.969336 1.105898 -7.161196 -4.282833 -1.698261 13.212741 0.000000 0.000000 0.000000 32.512978 4.191116 2.350345 5.844461 0.424279 1.786344 5.848068 0.289435 1.825584 3.532026 -3.458279 4.219290 0.000000 0.000000 0.000000 1.078707 -11.666862 -3.375850 0.360912 -1.028691 -36.714070 0.000010 -78.559593 -0.000005 0.000000 0.000000 0.000000 0.683211 15.394097 10.017543 -16.479366 87.800682 24.809947 0.000071 76.211702 -0.000091 0.000000 0.000000 0.000000 
-4.790403 41.299416 -24.440857 17.771491 10.220336 15.033226 -129.387402 0.035291 12.754359 109.949728 -2.846923 -2.514566 3.690178 0.665121 -8.416985 0.000000 0.000000 0.000000 -54.111993 7.249213 -25.801497 132.140405 0.646034 -7.543540 -4.052443 -1.672729 13.224499 0.000000 0.000000 0.000000 32.601097 4.111129 2.287284 5.852532 0.408847 1.774304 5.856013 0.273305 1.814647 3.525079 -3.539706 4.207507 0.000000 0.000000 0.000000 1.100590 -11.820720 -3.283978 0.244301 -0.734615 -36.596239 -0.000018 -78.919243 0.000007 0.000000 0.000000 0.000000 0.435306 16.147974 9.930665 14.177066 88.693005 -5.651991 0.000074 77.834302 -0.000087 0.000000 0.000000 0.000000 
-4.805195 41.250488 -24.500549 17.665929 9.904045 15.054389 -129.355532 -0.348992 12.786058 110.119486 -2.750644 -2.544956 3.700734 0.650267 -8.612258 0.000000 0.000000 0.000000 -54.555685 7.104819 -25.414953 132.327566 0.224776 -7.895013 -3.837050 -1.645923 13.242220 0.000000 0.000000 0.000000 32.686608 3.952800 2.246305 5.860982 0.370579 1.763532 5.863811 0.234755 1.805975 3.506237 -3.592436 4.154299 0.000000 0.000000 0.000000 1.110891 -11.900365 -3.279124 0.133094 -0.332773 -36.495050 -0.000025 -79.262624 0.000002 0.000000 0.000000 0.000000 0.219400 16.570095 10.029607 18.290815 88.629785 -9.330574 0.000045 79.893372 -0.000088 0.000000 0.000000 0.000000 
